<?xml version="1.0" standalone="no"?>
<!DOCTYPE svg PUBLIC "-//W3C//DTD SVG 20010904//EN"
 "http://www.w3.org/TR/2001/REC-SVG-20010904/DTD/svg10.dtd">
<svg version="1.0" xmlns="http://www.w3.org/2000/svg"
 width="888.000000pt" height="888.000000pt" viewBox="0 0 888.000000 888.000000"
 preserveAspectRatio="xMidYMid meet">
<metadata>
Created by potrace 1.14, written by Peter Selinger 2001-2017
</metadata>
<g transform="translate(0.000000,888.000000) scale(0.100000,-0.100000)"
fill="#000000" stroke="none">
<path d="M5373 7655 c-198 -36 -412 -141 -585 -288 -36 -31 -71 -57 -77 -57
-6 0 -54 29 -105 65 -127 88 -217 128 -382 169 -242 60 -356 73 -499 56 -259
-31 -507 -152 -696 -340 -91 -90 -148 -167 -214 -290 -40 -74 -40 -75 -90 -84
-306 -52 -566 -198 -841 -471 -272 -271 -481 -630 -575 -990 -21 -80 -24 -111
-23 -285 0 -177 3 -204 26 -291 53 -197 138 -349 278 -501 l71 -77 -41 -74
c-81 -148 -151 -347 -187 -532 -22 -112 -25 -419 -5 -510 56 -258 184 -481
387 -673 257 -243 631 -416 988 -457 51 -6 60 -10 69 -33 87 -207 167 -333
297 -462 170 -169 344 -267 596 -336 110 -31 299 -42 397 -25 189 33 528 180
708 308 120 86 342 307 439 438 110 150 203 303 287 472 41 84 78 155 83 157
4 3 48 -1 97 -9 114 -19 360 -19 456 -1 380 73 830 420 1073 828 232 390 348
804 332 1188 -16 380 -160 663 -424 834 -39 25 -73 51 -75 57 -2 7 -1 35 3 63
11 76 10 269 -1 371 -12 102 -41 246 -76 384 -100 387 -360 826 -612 1036
-244 202 -475 321 -700 360 -102 18 -280 18 -379 0z m-1443 -660 c204 -23 320
-44 376 -70 73 -32 172 -126 211 -198 41 -77 66 -103 127 -134 66 -33 144 -40
226 -19 76 20 154 61 306 162 156 103 260 151 360 166 74 11 90 10 169 -10
160 -39 266 -104 413 -252 143 -143 222 -280 306 -534 47 -141 76 -275 76
-351 0 -48 -23 -175 -39 -216 -5 -15 -38 -56 -73 -90 -35 -35 -74 -86 -87
-113 -61 -131 -39 -281 55 -386 77 -85 149 -115 325 -135 152 -17 183 -31 222
-103 67 -123 81 -354 34 -534 -78 -295 -263 -556 -555 -781 -159 -122 -279
-169 -438 -169 -112 0 -104 -3 -249 86 -83 51 -153 70 -236 64 -132 -10 -258
-97 -327 -226 -17 -32 -55 -121 -85 -198 -139 -356 -271 -570 -470 -761 -149
-143 -232 -196 -431 -275 -172 -68 -271 -64 -444 18 -105 51 -182 120 -221
198 -21 43 -23 58 -18 124 14 181 -52 305 -199 374 -58 27 -77 30 -221 38
-191 10 -309 35 -456 95 -305 123 -475 286 -532 510 -29 114 -12 276 51 469
60 188 115 275 212 340 111 73 155 154 156 281 1 68 -3 89 -27 136 -34 70
-105 138 -188 179 -83 42 -161 102 -199 154 -76 102 -104 301 -65 451 23 90
94 267 142 353 138 252 334 457 529 555 89 45 133 52 215 33 100 -22 196 -21
264 5 75 28 146 99 175 176 20 52 21 69 15 170 l-6 113 32 60 c39 73 108 147
184 195 109 70 153 76 385 50z"/>
<path d="M4680 6364 c-102 -22 -187 -53 -290 -105 -202 -101 -328 -224 -355
-346 -14 -65 28 -133 83 -133 13 0 60 18 106 40 129 62 216 81 401 87 179 6
239 -2 331 -46 108 -52 218 -164 330 -337 53 -82 134 -164 163 -164 68 0 146
53 184 124 18 34 22 62 25 171 3 78 -1 152 -8 185 -50 234 -286 446 -578 521
-91 23 -292 25 -392 3z"/>
<path d="M2641 4093 c-30 -37 -34 -63 -28 -157 15 -237 204 -510 431 -621 117
-58 212 -79 331 -71 l90 5 44 -55 c138 -176 406 -276 660 -246 232 27 456 136
622 301 90 91 146 172 204 295 114 240 114 369 2 460 l-37 30 -62 -30 c-42
-20 -96 -62 -172 -133 -161 -151 -277 -237 -391 -292 -126 -60 -208 -82 -310
-83 -135 -2 -204 48 -240 172 -30 102 -122 172 -225 172 -53 0 -132 -42 -171
-90 -69 -86 -74 -90 -127 -90 -178 0 -374 157 -495 396 -14 28 -33 54 -42 58
-34 13 -64 5 -84 -21z"/>
</g>
</svg>
